<?xml version="1.0" encoding="utf-8"?><!-- Uploaded to: SVG Repo, www.svgrepo.com, Generator: SVG Repo Mixer Tools -->
<svg fill="#000000" width="800px" height="800px" viewBox="0 0 24 24" id="down-up-arrow" data-name="Flat Color" xmlns="http://www.w3.org/2000/svg" class="icon flat-color"><path id="secondary" d="M19.71,6.29l-3-3a1,1,0,0,0-1.42,0l-3,3a1,1,0,0,0,1.42,1.42L15,6.41V20a1,1,0,0,0,2,0V6.41l1.29,1.3a1,1,0,0,0,1.42,0A1,1,0,0,0,19.71,6.29Z" style="fill: rgb(44, 169, 188);"></path><path id="primary" d="M11.71,16.29a1,1,0,0,0-1.42,0L9,17.59V4A1,1,0,0,0,7,4V17.59l-1.29-1.3a1,1,0,0,0-1.42,1.42l3,3a1,1,0,0,0,1.42,0l3-3A1,1,0,0,0,11.71,16.29Z" style="fill: rgb(0, 0, 0);"></path></svg>