<svg width="290" height="290" viewBox="0 0 290 290" fill="none" xmlns="http://www.w3.org/2000/svg">
<path d="M18.23 100.415C15.825 100.415 13.8759 102.365 13.8759 104.769V188.713C13.8759 191.118 15.8256 193.068 18.23 193.068C20.6344 193.068 22.5841 191.118 22.5841 188.713V104.769C22.5847 102.365 20.635 100.415 18.23 100.415Z" fill="#DEDDE0"/>
<path d="M35.7158 241.17H44.4585V171.229H35.7158C16.4014 171.229 0.744629 186.885 0.744629 206.199C0.744629 225.46 16.3484 241.17 35.7158 241.17Z" fill="#724AA1"/>
<path d="M236.799 241.17H228.057V171.229H236.799C256.113 171.229 271.771 186.885 271.771 206.2C271.77 225.46 256.166 241.17 236.799 241.17Z" fill="#724AA1"/>
<path d="M245.544 206.197C245.544 251.941 208.48 289.254 162.487 289.254H110.027C64.1612 289.255 26.9755 252.069 26.9755 206.197C26.9755 146.009 75.7377 96.916 136.257 96.916C160.333 96.916 182.639 104.719 200.729 117.956C227.871 137.812 245.544 169.888 245.544 206.197Z" fill="#9778AF"/>
<path d="M200.729 117.956H192.323C190.012 117.956 187.794 118.873 186.162 120.505L164.24 142.433C158.753 147.919 149.372 144.029 149.372 136.272V126.664C149.372 121.851 145.47 117.955 140.663 117.955H131.751C124.198 117.955 117.208 115.545 111.501 111.464C106.833 108.114 100.255 110.326 98.3334 115.742C84.0048 156.106 76.0223 226.036 145.993 289.255H110.027C64.1612 289.255 26.9755 252.069 26.9755 206.197C26.9755 146.009 75.7377 96.916 136.257 96.916C160.333 96.916 182.639 104.719 200.729 117.956Z" fill="#8259A5"/>
<path d="M219.314 206.197C219.314 235.087 195.91 258.652 166.859 258.652H105.661C76.6844 258.652 53.2001 235.168 53.2001 206.197C53.2001 182.986 68.3069 163.218 89.3175 156.338C94.4554 154.654 99.9478 153.743 105.661 153.743H166.859C195.83 153.743 219.314 177.227 219.314 206.197Z" fill="#F4F4F5"/>
<path d="M118.184 258.652H105.661C76.6844 258.652 53.2001 235.168 53.2001 206.197C53.2001 182.986 68.3069 163.218 89.3174 156.338C86.5304 186.539 92.0228 222.738 118.184 258.652Z" fill="#DEDDE0"/>
<path d="M289.255 31.0152V75.3884C289.255 92.1029 275.705 105.66 258.984 105.66H192.323C190.012 105.66 187.794 106.577 186.162 108.208L165.546 128.819C162.806 131.565 158.115 129.62 158.115 125.741V114.368C158.115 109.555 154.213 105.659 149.406 105.659H140.273C121.155 105.659 105.659 90.1577 105.659 71.0393V31.0152C105.659 14.2946 119.21 0.744141 135.925 0.744141H258.984C275.705 0.744141 289.255 14.2951 289.255 31.0152Z" fill="#B4E9F1"/>
<path d="M200.143 105.66H192.323C190.012 105.66 187.794 106.577 186.162 108.209L165.546 128.819C162.806 131.565 158.115 129.621 158.115 125.742V114.368C158.115 109.556 154.213 105.659 149.406 105.659H140.273C121.155 105.659 105.659 90.1582 105.659 71.0399V31.0152C105.659 14.2946 119.21 0.744141 135.925 0.744141H177.105C168.902 16.1242 159.811 71.662 200.143 105.66Z" fill="#81D8E7"/>
<circle cx="18.23" cy="110.028" r="13.1143" fill="#5972A5"/>
<circle cx="197.457" cy="53.2002" r="13.1143" fill="#7888AF"/>
<circle cx="249.913" cy="53.2002" r="13.1143" fill="#7888AF"/>
<circle cx="145" cy="53.2002" r="13.1143" fill="#5972A5"/>
<path d="M105.922 211.982C105.926 219.783 97.9875 226.111 88.1905 226.116C78.3941 226.121 70.4488 219.801 70.4448 212C70.4409 204.198 78.3794 197.869 88.1764 197.864C97.9728 197.859 105.918 204.18 105.922 211.982Z" fill="#FFA1AC"/>
<path d="M166.593 211.952C166.597 219.753 174.542 226.074 184.339 226.068C194.135 226.063 202.074 219.735 202.07 211.934C202.067 204.132 194.122 197.811 184.325 197.816C174.528 197.821 166.589 204.15 166.593 211.952Z" fill="#FFA1AC"/>
<path d="M119 237.749C119.006 244.236 126.775 237.752 136.378 237.749C145.981 237.746 153.781 244.225 153.776 237.739C153.77 231.253 145.981 225.997 136.378 226C126.775 226.003 118.994 231.263 119 237.749Z" fill="#495560"/>
<circle cx="173.679" cy="194.382" r="13.1143" fill="#495560"/>
<circle cx="98.8402" cy="194.381" r="13.1143" fill="#495560"/>
</svg>
